<svg width="164" height="40" fill="none" xmlns="http://www.w3.org/2000/svg"><path d="M5.18 29.3c.983 0 1.753.235 2.31.704.557.47.836 1.115.836 1.936s-.279 1.467-.836 1.936c-.557.462-1.327.693-2.31.693H3.112V37h-.814v-7.7H5.18zm-.022 4.554c.763 0 1.346-.165 1.749-.495.403-.337.605-.81.605-1.419 0-.623-.202-1.1-.605-1.43-.403-.337-.986-.506-1.749-.506H3.112v3.85h2.046zm7.01 3.201c-.557 0-1.06-.125-1.507-.374a2.808 2.808 0 01-1.056-1.056 2.995 2.995 0 01-.385-1.518c0-.565.128-1.07.385-1.518a2.729 2.729 0 011.056-1.045c.447-.25.95-.374 1.507-.374.557 0 1.06.125 1.507.374.447.25.796.598 1.045 1.045.257.447.385.953.385 1.518 0 .565-.128 1.07-.385 1.518-.25.447-.598.8-1.045 1.056-.447.25-.95.374-1.507.374zm0-.693c.41 0 .777-.092 1.1-.275.33-.19.587-.458.77-.803.183-.345.275-.737.275-1.177 0-.44-.092-.832-.275-1.177a1.909 1.909 0 00-.77-.792 2.12 2.12 0 00-1.1-.286c-.41 0-.781.095-1.111.286-.323.183-.58.447-.77.792a2.468 2.468 0 00-.275 1.177c0 .44.092.832.275 1.177.19.345.447.612.77.803.33.183.7.275 1.11.275zm7.38-2.376c.41.095.725.26.945.495.228.235.341.52.341.858 0 .337-.117.638-.352.902-.227.264-.539.47-.935.616-.396.14-.832.209-1.309.209a4.39 4.39 0 01-1.232-.176 3.265 3.265 0 01-1.056-.539l.264-.583c.264.198.572.352.924.462.352.11.708.165 1.067.165.536 0 .972-.099 1.31-.297.344-.205.516-.48.516-.825 0-.308-.14-.546-.418-.715-.279-.176-.66-.264-1.144-.264h-.99v-.572h.946c.433 0 .781-.08 1.045-.242.264-.169.396-.392.396-.671 0-.308-.15-.55-.45-.726-.294-.176-.68-.264-1.156-.264a3.98 3.98 0 00-1.848.473l-.22-.605a4.584 4.584 0 012.145-.539c.44 0 .836.066 1.188.198.36.125.638.304.836.539.206.235.308.506.308.814 0 .293-.102.554-.308.781-.198.227-.47.396-.814.506zm6.04-2.816a2.94 2.94 0 011.474.374c.44.242.785.587 1.034 1.034.25.447.374.957.374 1.529 0 .58-.125 1.093-.374 1.54-.25.447-.594.796-1.034 1.045a2.968 2.968 0 01-1.474.363c-.47 0-.895-.095-1.276-.286a2.463 2.463 0 01-.924-.858v3.223h-.78v-7.92h.747v1.144c.235-.381.543-.675.924-.88a2.76 2.76 0 011.31-.308zm-.055 5.192c.403 0 .77-.092 1.1-.275.33-.19.587-.458.77-.803a2.39 2.39 0 00.286-1.177c0-.44-.095-.829-.286-1.166a1.982 1.982 0 00-.77-.803 2.159 2.159 0 00-1.1-.286c-.41 0-.78.095-1.11.286a2.06 2.06 0 00-.77.803 2.403 2.403 0 00-.276 1.166c0 .44.092.832.275 1.177.19.345.447.612.77.803.33.183.7.275 1.111.275zm7.002.693c-.557 0-1.06-.125-1.507-.374a2.809 2.809 0 01-1.056-1.056 2.994 2.994 0 01-.385-1.518c0-.565.128-1.07.385-1.518a2.729 2.729 0 011.056-1.045c.447-.25.95-.374 1.507-.374.557 0 1.06.125 1.507.374.447.25.796.598 1.045 1.045.257.447.385.953.385 1.518 0 .565-.128 1.07-.385 1.518-.25.447-.598.8-1.045 1.056-.447.25-.95.374-1.507.374zm0-.693c.41 0 .777-.092 1.1-.275.33-.19.587-.458.77-.803.183-.345.275-.737.275-1.177 0-.44-.092-.832-.275-1.177a1.909 1.909 0 00-.77-.792 2.12 2.12 0 00-1.1-.286c-.41 0-.78.095-1.11.286-.324.183-.58.447-.77.792a2.468 2.468 0 00-.276 1.177c0 .44.092.832.275 1.177.19.345.447.612.77.803.33.183.7.275 1.111.275zm7.411-5.005a2.8 2.8 0 011.43.363c.426.235.756.568.99 1.001.235.425.352.913.352 1.463 0 .565-.124 1.067-.374 1.507-.242.433-.583.77-1.023 1.012-.44.242-.946.363-1.518.363-.96 0-1.705-.337-2.233-1.012s-.792-1.606-.792-2.794c0-1.24.235-2.189.704-2.849.477-.66 1.218-1.107 2.222-1.342l2.596-.594.132.715-2.442.561c-.828.183-1.437.51-1.826.979-.388.462-.601 1.148-.638 2.057a2.59 2.59 0 01.98-1.045c.417-.257.898-.385 1.44-.385zm-.12 5.06c.403 0 .762-.092 1.077-.275.323-.19.572-.455.748-.792a2.35 2.35 0 00.275-1.144c0-.425-.088-.8-.264-1.122a1.837 1.837 0 00-.748-.748 2.127 2.127 0 00-1.089-.275c-.41 0-.777.092-1.1.275a1.929 1.929 0 00-.748.748 2.306 2.306 0 00-.264 1.122c0 .425.088.807.264 1.144.184.337.437.601.76.792.322.183.685.275 1.088.275zm6.667-1.991h-1.32V37h-.78v-5.786h.78v2.541h1.331l2.035-2.541h.847l-2.277 2.805L49.551 37h-.924l-2.134-2.574zm6.174-3.256c.756 0 1.335.19 1.738.572.404.374.605.931.605 1.672V37h-.748v-.902c-.176.3-.436.535-.78.704-.338.169-.741.253-1.21.253-.646 0-1.16-.154-1.54-.462-.382-.308-.573-.715-.573-1.221 0-.491.176-.887.528-1.188.36-.3.928-.451 1.705-.451h1.837v-.352c0-.499-.139-.876-.418-1.133-.278-.264-.685-.396-1.22-.396-.367 0-.72.062-1.057.187a2.586 2.586 0 00-.869.495l-.352-.583c.294-.25.646-.44 1.056-.572.411-.14.844-.209 1.298-.209zm-.275 5.269c.44 0 .818-.099 1.133-.297.316-.205.55-.499.704-.88v-.946h-1.815c-.99 0-1.485.345-1.485 1.034 0 .337.129.605.385.803.257.19.616.286 1.078.286zm7.576-5.225h.781V37h-.78v-5.786zm.396-1.265a.553.553 0 01-.407-.165.54.54 0 01-.165-.396c0-.147.055-.275.165-.385a.553.553 0 01.407-.165c.162 0 .297.055.407.165.11.103.165.227.165.374a.553.553 0 01-.165.407.553.553 0 01-.407.165zm8.472 1.221a2.94 2.94 0 011.474.374c.44.242.785.587 1.034 1.034.25.447.374.957.374 1.529 0 .58-.124 1.093-.374 1.54-.25.447-.594.796-1.034 1.045a2.967 2.967 0 01-1.474.363c-.47 0-.894-.095-1.276-.286a2.463 2.463 0 01-.924-.858v3.223h-.78v-7.92h.747v1.144c.235-.381.543-.675.924-.88a2.76 2.76 0 011.31-.308zm-.055 5.192c.403 0 .77-.092 1.1-.275.33-.19.587-.458.77-.803a2.39 2.39 0 00.286-1.177c0-.44-.095-.829-.286-1.166a1.982 1.982 0 00-.77-.803 2.158 2.158 0 00-1.1-.286c-.41 0-.78.095-1.11.286a2.06 2.06 0 00-.77.803 2.403 2.403 0 00-.276 1.166c0 .44.092.832.275 1.177.19.345.447.612.77.803.33.183.7.275 1.111.275zm7.002.693c-.557 0-1.06-.125-1.507-.374a2.807 2.807 0 01-1.056-1.056 2.994 2.994 0 01-.385-1.518c0-.565.129-1.07.385-1.518a2.727 2.727 0 011.056-1.045c.448-.25.95-.374 1.507-.374.558 0 1.06.125 1.507.374.447.25.796.598 1.045 1.045.257.447.385.953.385 1.518 0 .565-.128 1.07-.385 1.518-.25.447-.597.8-1.045 1.056-.447.25-.95.374-1.507.374zm0-.693c.41 0 .778-.092 1.1-.275.33-.19.587-.458.77-.803.183-.345.275-.737.275-1.177 0-.44-.091-.832-.275-1.177a1.91 1.91 0 00-.77-.792 2.12 2.12 0 00-1.1-.286c-.41 0-.78.095-1.11.286-.323.183-.58.447-.77.792a2.467 2.467 0 00-.276 1.177c0 .44.092.832.275 1.177.19.345.448.612.77.803.33.183.7.275 1.111.275zm7.38-2.376c.41.095.725.26.945.495.228.235.341.52.341.858 0 .337-.117.638-.352.902-.227.264-.539.47-.935.616-.396.14-.832.209-1.309.209a4.39 4.39 0 01-1.232-.176 3.263 3.263 0 01-1.056-.539l.264-.583c.264.198.572.352.924.462.352.11.708.165 1.067.165.536 0 .972-.099 1.31-.297.344-.205.516-.48.516-.825 0-.308-.139-.546-.418-.715-.278-.176-.66-.264-1.144-.264h-.99v-.572h.946c.433 0 .781-.08 1.045-.242.264-.169.396-.392.396-.671 0-.308-.15-.55-.45-.726-.294-.176-.679-.264-1.156-.264a3.98 3.98 0 00-1.848.473l-.22-.605a4.584 4.584 0 012.145-.539c.44 0 .836.066 1.188.198.36.125.638.304.836.539a1.2 1.2 0 01.308.814c0 .293-.102.554-.308.781-.198.227-.469.396-.814.506zm5.16.44h-1.32V37h-.78v-5.786h.78v2.541h1.331l2.035-2.541h.847l-2.277 2.805L91.381 37h-.924l-2.134-2.574zm7.272-3.256a2.94 2.94 0 011.474.374c.44.242.785.587 1.034 1.034.25.447.374.957.374 1.529 0 .58-.125 1.093-.374 1.54-.25.447-.594.796-1.034 1.045a2.967 2.967 0 01-1.474.363c-.47 0-.895-.095-1.276-.286a2.463 2.463 0 01-.924-.858v3.223h-.781v-7.92h.748v1.144c.235-.381.543-.675.924-.88a2.76 2.76 0 011.309-.308zm-.055 5.192c.403 0 .77-.092 1.1-.275.33-.19.587-.458.77-.803a2.39 2.39 0 00.286-1.177c0-.44-.095-.829-.286-1.166a1.982 1.982 0 00-.77-.803 2.158 2.158 0 00-1.1-.286c-.41 0-.781.095-1.111.286-.323.19-.58.458-.77.803a2.403 2.403 0 00-.275 1.166c0 .44.092.832.275 1.177.19.345.447.612.77.803.33.183.7.275 1.11.275zm9.371-5.148l-2.893 6.479c-.235.543-.506.928-.814 1.155-.308.227-.679.341-1.111.341-.279 0-.54-.044-.781-.132a1.692 1.692 0 01-.627-.396l.363-.583c.293.293.645.44 1.056.44.264 0 .487-.073.671-.22.19-.147.366-.396.528-.748l.253-.561-2.585-5.775h.814l2.178 4.917 2.178-4.917h.77zm5.308.693h-2.189V37h-.781v-5.093h-2.189v-.693h5.159v.693zm3.23 2.519h-1.32V37h-.781v-5.786h.781v2.541h1.331l2.035-2.541h.847l-2.277 2.805L116.507 37h-.924l-2.134-2.574zm6.174-3.256c.756 0 1.335.19 1.738.572.404.374.605.931.605 1.672V37h-.748v-.902a1.79 1.79 0 01-.781.704c-.337.169-.74.253-1.21.253-.645 0-1.158-.154-1.54-.462-.381-.308-.572-.715-.572-1.221 0-.491.176-.887.528-1.188.36-.3.928-.451 1.705-.451h1.837v-.352c0-.499-.139-.876-.418-1.133-.278-.264-.685-.396-1.221-.396a3.02 3.02 0 00-1.056.187 2.589 2.589 0 00-.869.495l-.352-.583c.294-.25.646-.44 1.056-.572.411-.14.844-.209 1.298-.209zm-.275 5.269c.44 0 .818-.099 1.133-.297.316-.205.55-.499.704-.88v-.946h-1.815c-.99 0-1.485.345-1.485 1.034 0 .337.129.605.385.803.257.19.616.286 1.078.286zm9.996.616a3.15 3.15 0 01-1.54-.374 2.733 2.733 0 01-1.056-1.045 3.063 3.063 0 01-.385-1.529c0-.565.129-1.07.385-1.518a2.733 2.733 0 011.056-1.045 3.15 3.15 0 011.54-.374c.499 0 .943.099 1.331.297.396.19.708.473.935.847l-.583.396a1.774 1.774 0 00-.726-.638 2.107 2.107 0 00-.957-.22 2.26 2.26 0 00-1.133.286c-.33.183-.59.447-.781.792a2.471 2.471 0 00-.275 1.177c0 .447.092.843.275 1.188.191.337.451.601.781.792a2.34 2.34 0 001.133.275 2.2 2.2 0 00.957-.209 1.78 1.78 0 00.726-.638l.583.396c-.227.374-.539.66-.935.858-.396.19-.839.286-1.331.286zm5.77-5.885c.755 0 1.334.19 1.738.572.403.374.605.931.605 1.672V37h-.748v-.902c-.176.3-.437.535-.781.704-.338.169-.741.253-1.21.253-.646 0-1.159-.154-1.54-.462-.382-.308-.572-.715-.572-1.221 0-.491.176-.887.528-1.188.359-.3.927-.451 1.705-.451h1.837v-.352c0-.499-.14-.876-.418-1.133-.279-.264-.686-.396-1.221-.396-.367 0-.719.062-1.056.187a2.58 2.58 0 00-.869.495l-.352-.583c.293-.25.645-.44 1.056-.572a3.99 3.99 0 011.298-.209zm-.275 5.269c.44 0 .817-.099 1.133-.297a1.84 1.84 0 00.704-.88v-.946h-1.815c-.99 0-1.485.345-1.485 1.034a.96.96 0 00.385.803c.256.19.616.286 1.078.286zm4.697-5.225h.781v4.598l3.861-4.598h.693V37h-.781v-4.598L140.24 37h-.704v-5.786zm2.629-.836c-.499 0-.895-.125-1.188-.374-.294-.25-.444-.601-.451-1.056h.561c.007.286.11.517.308.693.198.169.454.253.77.253.315 0 .572-.084.77-.253a.904.904 0 00.319-.693h.561c-.008.455-.162.807-.462 1.056-.294.25-.69.374-1.188.374zm9.014 1.529h-2.189V37h-.781v-5.093h-2.189v-.693h5.159v.693zm1.129-.693h.781V37h-.781v-5.786zm.396-1.265a.554.554 0 01-.407-.165.54.54 0 01-.165-.396c0-.147.055-.275.165-.385a.554.554 0 01.407-.165c.162 0 .297.055.407.165.11.103.165.227.165.374a.553.553 0 01-.165.407.552.552 0 01-.407.165zm6.297 4.059c.785.183 1.177.656 1.177 1.419 0 .506-.187.895-.561 1.166-.374.271-.931.407-1.672.407h-2.629v-5.786h2.552c.66 0 1.177.128 1.551.385.374.257.561.623.561 1.1 0 .315-.088.587-.264.814-.169.22-.407.385-.715.495zm-2.926-.22h1.738c.447 0 .788-.084 1.023-.253.242-.169.363-.414.363-.737s-.121-.565-.363-.726c-.235-.161-.576-.242-1.023-.242h-1.738v1.958zm1.837 2.596c.499 0 .873-.08 1.122-.242.249-.161.374-.414.374-.759 0-.345-.114-.598-.341-.759-.227-.169-.587-.253-1.078-.253h-1.914v2.013h1.837z" fill="#000"/><g clip-path="url(#clip0)"><path d="M155.627 22.423c-4.312 0-7.373-3.335-7.373-7.607 0-4.274 3.061-7.608 7.373-7.608 4.313 0 7.373 3.335 7.373 7.607 0 4.273-3.06 7.608-7.373 7.608zM9.857 11.022L6.101 22.223H4.948L0 7.468h1.888l3.676 11.021L9.261 7.468h1.192l3.717 11.021 3.656-11.021h1.908l-4.968 14.755h-1.133L9.857 11.022zm12.42 2.955h11.15c-.338-2.995-2.484-5.212-5.565-5.212-3.08 0-5.226 2.217-5.584 5.212zm0 1.597c.28 3.035 2.445 5.311 5.585 5.311a6.312 6.312 0 003.697-1.178c.417-.3.914-.738 1.192-1.178l.1-.16h1.927l-.278.54c-.338.659-.974 1.338-1.55 1.817-1.451 1.218-3.22 1.757-5.108 1.757-4.352 0-7.392-3.355-7.392-7.648 0-4.293 3.04-7.667 7.392-7.667 1.65 0 3.26.52 4.571 1.538a7.252 7.252 0 012.147 2.755 8.4 8.4 0 01.675 3.754l-.02.34H22.278v.02zm17.45-.758c0 3.354 2.186 6.05 5.624 6.05 3.438 0 5.644-2.716 5.644-6.05 0-3.335-2.186-6.05-5.644-6.05s-5.624 2.715-5.624 6.05zm0 4.692v2.715h-1.77V0h1.77v10.143c.218-.32.477-.619.715-.878 1.331-1.378 3-2.097 4.909-2.097 4.352 0 7.392 3.355 7.392 7.647 0 4.313-3.06 7.648-7.392 7.648-1.868 0-3.518-.68-4.85-2.017a8.825 8.825 0 01-.774-.938zM65.86 9.364c1.073-1.437 2.623-2.156 4.392-2.156 1.272 0 2.484.34 3.498 1.118 1.828 1.418 2.424 3.794 2.424 6.01v7.847h-3.08v-7.527c0-1.977-.438-4.513-2.922-4.513s-2.921 2.516-2.921 4.513v7.527h-3.06v-7.527c0-1.977-.438-4.513-2.922-4.513s-2.921 2.516-2.921 4.513v7.527h-3.08V7.448h3.08v.599c.894-.6 1.927-.859 3-.859 1.809.02 3.419.699 4.512 2.176zm52.942 10.124c1.093 0 3.16-.22 3.16-1.697 0-.2-.02-.42-.139-.6-.437-.758-2.365-1.038-3.16-1.158-2.544-.339-5.704-1.297-5.704-4.452 0-.62.12-1.218.378-1.757.974-2.057 3.378-2.636 5.445-2.636 1.669 0 3.398.42 4.611 1.657.755.78.973 1.418 1.172 2.277h-3.14a1.55 1.55 0 00-.278-.32c-.616-.539-1.55-.679-2.345-.679-.954 0-2.762.16-2.762 1.458 0 .12.019.26.079.38.338.678 2.166.998 2.842 1.097 2.782.42 6.061 1.238 6.061 4.713 0 .818-.198 1.597-.656 2.296-1.172 1.837-3.557 2.356-5.584 2.356-1.769 0-3.617-.42-4.948-1.697-.517-.5-1.034-1.238-1.213-1.937l-.099-.44h3.22c.119.14.258.28.357.36.755.599 1.789.779 2.703.779zm10.274-12.02V3.714h3.081v3.754h4.054v2.915h-4.054v5.67c0 .78 0 1.598.139 2.357.04.26.139.698.358.878.178.16.536.18.775.18.497 0 .993-.1 1.49-.2l1.312-.3v2.896l-.775.24c-.676.2-1.451.299-2.147.299-.953 0-1.888-.2-2.643-.819-.715-.599-1.073-1.417-1.291-2.316-.239-1.058-.279-2.136-.279-3.215v-5.67h-2.842V7.468h2.822zm13.117.479c.854-.54 1.828-.759 2.842-.759.695 0 1.45.1 2.126.3l.755.24v3.014l-1.371-.42a5.508 5.508 0 00-1.51-.199c-.656 0-1.292.14-1.769.62-.934.938-1.033 2.934-1.033 4.172v7.248h-3.061V7.448h3.061v.499h-.04zm-51.969.779V7.468h3.06v14.735h-3.06v-1.278c-1.232.999-2.702 1.498-4.312 1.498-4.313 0-7.373-3.335-7.373-7.607 0-4.274 3.06-7.608 7.373-7.608 1.61 0 3.08.5 4.312 1.518zm0 6.09c0-2.596-1.63-4.693-4.312-4.693-2.683 0-4.313 2.097-4.313 4.673 0 2.575 1.63 4.672 4.313 4.672s4.312-2.077 4.312-4.652zm8.745 1.417c.496 1.977 2.046 3.255 4.133 3.255 1.034 0 2.007-.28 2.842-.899.099-.06.199-.14.298-.24h3.716l-.218.44c-.358.699-.974 1.358-1.57 1.857-1.431 1.198-3.2 1.757-5.068 1.757-4.312 0-7.373-3.335-7.373-7.607 0-4.273 3.06-7.628 7.373-7.628 1.65 0 3.24.52 4.551 1.538a7.25 7.25 0 012.146 2.755c.736 1.637.716 2.995.636 4.732H98.969v.04zm.04-2.935h8.187c-.537-1.917-2.067-3.155-4.094-3.155-2.027-.02-3.557 1.238-4.094 3.155zm60.911 1.518c0-2.576-1.63-4.673-4.313-4.673s-4.312 2.097-4.312 4.672c0 2.576 1.629 4.673 4.312 4.673 2.683 0 4.313-2.097 4.313-4.672z" fill="#000"/></g><defs><clipPath id="clip0"><path fill="#fff" d="M0 0h163v22.483H0z"/></clipPath></defs></svg>