<svg width="20" height="20" fill="none" xmlns="http://www.w3.org/2000/svg"><path d="M16.875 1.25h-1.25V.625a.625.625 0 10-1.25 0v.625h-2.5V.625a.625.625 0 10-1.25 0v.625h-2.5V.625a.625.625 0 10-1.25 0v.625h-2.5V.625a.625.625 0 10-1.25 0v.625h-1.25A1.877 1.877 0 000 3.125v15c0 .346.28.625.625.625h10.327A5.59 5.59 0 0110 15.625 5.631 5.631 0 0115.625 10a5.59 5.59 0 013.125.952V3.125a1.877 1.877 0 00-1.875-1.875zm-12.5 15h-1.25a.625.625 0 110-1.25h1.25a.625.625 0 110 1.25zm0-2.5h-1.25a.625.625 0 110-1.25h1.25a.625.625 0 110 1.25zm0-2.5h-1.25a.625.625 0 110-1.25h1.25a.625.625 0 110 1.25zm0-2.5h-1.25a.625.625 0 110-1.25h1.25a.625.625 0 110 1.25zm3.75 7.5h-1.25a.625.625 0 110-1.25h1.25a.625.625 0 110 1.25zm0-2.5h-1.25a.625.625 0 110-1.25h1.25a.625.625 0 110 1.25zm0-2.5h-1.25a.625.625 0 110-1.25h1.25a.625.625 0 110 1.25zm0-2.5h-1.25a.625.625 0 110-1.25h1.25a.625.625 0 110 1.25zm3.75 2.5h-1.25a.625.625 0 110-1.25h1.25a.625.625 0 110 1.25zm0-2.5h-1.25a.625.625 0 110-1.25h1.25a.625.625 0 110 1.25zm3.75 0h-1.25a.625.625 0 110-1.25h1.25a.625.625 0 110 1.25zM17.5 5H1.25V3.125c0-.345.28-.625.625-.625h1.25v.625a.625.625 0 101.25 0V2.5h2.5v.625a.625.625 0 101.25 0V2.5h2.5v.625a.625.625 0 101.25 0V2.5h2.5v.625a.625.625 0 101.25 0V2.5h1.25c.345 0 .625.28.625.625V5z" fill="#F76F0D"/><path d="M15.625 11.25a4.38 4.38 0 00-4.375 4.375A4.38 4.38 0 0015.625 20 4.38 4.38 0 0020 15.625a4.38 4.38 0 00-4.375-4.375zm2.5 5h-2.5a.625.625 0 01-.625-.625v-2.5a.625.625 0 111.25 0V15h1.875a.625.625 0 110 1.25z" fill="#F76F0D"/></svg>