<svg width="20" height="20" fill="none" xmlns="http://www.w3.org/2000/svg"><path d="M18.242 2.383H1.758c-.27 0-.524.066-.753.176l8.956 8.956 2.007-1.929 7.028-7.027a1.737 1.737 0 00-.754-.176zm1.582 1.005L13.211 10l6.613 6.612a1.73 1.73 0 00.176-.753V4.141c0-.27-.066-.524-.176-.753zm-19.648 0C.066 3.617 0 3.87 0 4.14v11.72c0 .27.066.523.176.752L6.789 10 .176 3.388z" fill="#9EF9F9"/><path d="M12.383 10.829l-2.008 1.93a.584.584 0 01-.828 0l-1.93-1.93-6.612 6.612c.229.11.482.176.753.176h16.484c.27 0 .524-.066.753-.176l-6.612-6.612z" fill="#9EF9F9"/></svg>