<svg width="15" height="15" fill="none" xmlns="http://www.w3.org/2000/svg"><g clip-path="url(#clip0)" fill="#fff"><path d="M14.777 5.422a1.036 1.036 0 00-.815-.391h-2.889L9.507 1.444a.44.44 0 10-.806.352l1.413 3.235H4.886l1.413-3.235a.44.44 0 00-.806-.352L3.927 5.03H1.038c-.32 0-.617.142-.815.39a1.012 1.012 0 00-.197.861l1.543 6.739c.107.47.523.799 1.012.799h9.838a1.03 1.03 0 001.012-.8l1.543-6.738a1.012 1.012 0 00-.197-.86zM12.42 12.94H2.581a.157.157 0 01-.156-.116L.883 6.086A.134.134 0 01.91 5.97a.16.16 0 01.128-.06h2.505l-.115.263a.44.44 0 00.805.352l.269-.615h5.996l.269.615a.44.44 0 10.805-.352l-.115-.263h2.505c.07 0 .11.037.128.06.02.024.04.064.027.116l-1.542 6.739a.157.157 0 01-.156.116z"/><path d="M4.863 7.814a.44.44 0 00-.44.44v3.222a.44.44 0 00.88 0V8.253a.44.44 0 00-.44-.439zm2.637 0a.44.44 0 00-.44.44v3.222a.44.44 0 00.88 0V8.253a.44.44 0 00-.44-.439zm2.637 0a.44.44 0 00-.44.44v3.222a.44.44 0 00.88 0V8.253a.44.44 0 00-.44-.439z"/></g><defs><clipPath id="clip0"><path fill="#fff" d="M0 0h15v15H0z"/></clipPath></defs></svg>