<svg width="30" height="30" fill="none" xmlns="http://www.w3.org/2000/svg"><path d="M7.5 0a1.88 1.88 0 00-1.875 1.875v26.25A1.88 1.88 0 007.5 30h18.75a1.88 1.88 0 001.875-1.875V7.5l-7.5-7.5H7.5z" fill="#E2E5E7"/><path d="M22.5 7.5h5.625l-7.5-7.5v5.625A1.88 1.88 0 0022.5 7.5z" fill="#B0B7BD"/><path d="M28.125 13.125L22.5 7.5h5.625v5.625z" fill="#CAD1D8"/><path d="M24.375 24.375a.94.94 0 01-.938.938H2.813a.94.94 0 01-.937-.938V15a.94.94 0 01.938-.938h20.625a.94.94 0 01.937.938v9.375z" fill="#FA1E2B"/><path d="M5.962 17.763c0-.248.195-.518.509-.518h1.731c.975 0 1.853.653 1.853 1.903 0 1.186-.878 1.846-1.853 1.846H6.951v.99c0 .33-.21.516-.48.516a.505.505 0 01-.51-.517v-4.22zm.989.426v1.868h1.251c.503 0 .9-.444.9-.909 0-.524-.397-.959-.9-.959H6.951zm4.572 4.311c-.248 0-.518-.135-.518-.464v-4.258c0-.27.27-.465.518-.465h1.716c3.426 0 3.35 5.187.068 5.187h-1.784zm.472-4.272v3.358h1.244c2.024 0 2.114-3.358 0-3.358h-1.244zm5.81.06v1.192h1.912c.27 0 .54.27.54.531 0 .248-.27.45-.54.45h-1.912v1.574c0 .263-.187.464-.45.464-.33 0-.53-.201-.53-.464v-4.258c0-.27.202-.465.53-.465h2.633c.33 0 .524.196.524.465 0 .24-.195.51-.524.51h-2.183z" fill="#fff"/><path d="M23.438 25.313H5.625v.937h17.813a.94.94 0 00.937-.938v-.937a.94.94 0 01-.938.938z" fill="#CAD1D8"/></svg>