<svg width="25" height="25" fill="none" xmlns="http://www.w3.org/2000/svg"><g clip-path="url(#clip0)" fill="#fff"><path d="M12.5 19.817a.976.976 0 100-1.953.976.976 0 000 1.953zm2.724-14.13H9.776a.542.542 0 00-.554.528v10.3c0 .29.248.527.554.527h5.448a.542.542 0 00.554-.528v-10.3a.542.542 0 00-.554-.527z"/><path d="M12.5 0C5.598 0 .002 5.597.002 12.5S5.597 25 12.501 25C19.404 25 25 19.403 25 12.5 25 5.596 19.404 0 12.5 0zm4.864 18.668a1.73 1.73 0 01-1.73 1.73H9.368a1.73 1.73 0 01-1.73-1.73V6.277c0-.955.775-1.73 1.73-1.73h6.268a1.73 1.73 0 011.729 1.73v12.391z"/></g><defs><clipPath id="clip0"><path fill="#fff" d="M0 0h25v25H0z"/></clipPath></defs></svg>