<svg width="216" height="71" fill="none" xmlns="http://www.w3.org/2000/svg"><path d="M170.208 0H35.424C15.86 0 0 15.894 0 35.5S15.86 71 35.424 71h134.784c19.564 0 35.424-15.894 35.424-35.5S189.772 0 170.208 0z" fill="#10499E"/><path d="M35.562 21.82c2.408 0 4.499.406 6.273 1.219 1.774.787 3.143 1.93 4.106 3.428.963 1.474 1.444 3.213 1.444 5.22 0 2.006-.481 3.746-1.444 5.22-.963 1.472-2.332 2.615-4.106 3.428-1.774.787-3.865 1.181-6.273 1.181h-4.638v6.972h-7.527V21.82h12.165zm-.456 13.753c1.546 0 2.712-.33 3.497-.99.786-.686 1.179-1.652 1.179-2.896 0-1.245-.393-2.21-1.178-2.896-.786-.685-1.952-1.028-3.498-1.028h-4.182v7.81h4.182zm25.91 13.258c-2.205 0-4.194-.457-5.968-1.372-1.774-.914-3.168-2.184-4.182-3.81-.988-1.625-1.483-3.466-1.483-5.524 0-2.032.495-3.86 1.483-5.486 1.014-1.625 2.395-2.883 4.144-3.771 1.774-.915 3.776-1.372 6.006-1.372 2.23 0 4.233.457 6.007 1.372 1.774.889 3.155 2.146 4.144 3.771.988 1.6 1.482 3.429 1.482 5.486 0 2.058-.494 3.899-1.482 5.525-.989 1.625-2.37 2.895-4.144 3.81-1.774.914-3.776 1.37-6.007 1.37zm0-5.753c1.267 0 2.307-.432 3.118-1.295.81-.89 1.216-2.108 1.216-3.658 0-1.524-.405-2.717-1.216-3.58-.811-.864-1.85-1.296-3.118-1.296-1.267 0-2.306.431-3.117 1.295-.811.864-1.217 2.057-1.217 3.581 0 1.55.406 2.769 1.217 3.658.811.863 1.85 1.295 3.117 1.295zm14.98-22.859h7.222v28.269h-7.223V20.22z" fill="#fff"/><mask id="a" maskUnits="userSpaceOnUse" x="91" y="0" width="125" height="71"><path fill-rule="evenodd" clip-rule="evenodd" d="M91.584 71V0h88.992C200.14 0 216 15.894 216 35.5S200.14 71 180.576 71H91.584z" fill="#fff"/></mask><g mask="url(#a)"><path fill-rule="evenodd" clip-rule="evenodd" d="M91.584 71V0h88.992C200.14 0 216 15.894 216 35.5S200.14 71 180.576 71H91.584z" fill="#fff"/><path d="M91.584 71h-3.456v3.463h3.456V71zm0-71v-3.463h-3.456V0h3.456zm3.456 71V0h-6.912v71h6.912zM91.584 3.463h88.992v-6.926H91.584v6.926zm88.992 0c17.655 0 31.968 14.344 31.968 32.037h6.912c0-21.519-17.408-38.963-38.88-38.963v6.926zM212.544 35.5c0 17.693-14.313 32.037-31.968 32.037v6.926c21.472 0 38.88-17.444 38.88-38.963h-6.912zm-31.968 32.037H91.584v6.926h88.992v-6.926z" fill="#10499E"/><path d="M108.043 27.648v5.868h11.747v5.828h-11.747v9.144h-7.527V21.82h20.871v5.828h-13.344zm24.858-.152c3.421 0 6.032.788 7.831 2.362 1.8 1.55 2.699 3.937 2.699 7.162v11.468h-6.728V45.82c-1.039 2.007-3.067 3.01-6.083 3.01-1.597 0-2.978-.28-4.144-.838-1.165-.56-2.053-1.308-2.661-2.248-.583-.965-.874-2.057-.874-3.276 0-1.956.748-3.467 2.243-4.534 1.495-1.092 3.801-1.638 6.919-1.638h4.105c-.126-2.185-1.583-3.277-4.371-3.277a9.66 9.66 0 00-3.004.495c-1.013.305-1.875.737-2.585 1.296l-2.433-4.915c1.141-.762 2.522-1.346 4.144-1.752a19.425 19.425 0 014.942-.648zm-.266 16.763c.836 0 1.571-.203 2.205-.61.633-.406 1.09-1.003 1.368-1.79v-1.79h-3.117c-2.103 0-3.155.698-3.155 2.095 0 .635.241 1.143.722 1.524.482.38 1.141.571 1.977.571zm22.237-13.944c.735-.94 1.685-1.638 2.851-2.095 1.191-.483 2.547-.724 4.068-.724v6.515a14.738 14.738 0 00-1.635-.114c-1.546 0-2.763.419-3.65 1.257-.861.838-1.292 2.12-1.292 3.848v9.486h-7.223V27.839h6.881v2.476zm36.739-2.819c2.533 0 4.548.762 6.045 2.286 1.52 1.524 2.281 3.822 2.281 6.896v11.81h-7.224v-10.63c0-1.447-.279-2.514-.836-3.2-.532-.685-1.292-1.028-2.281-1.028-1.09 0-1.965.38-2.623 1.143-.66.762-.988 1.917-.988 3.467v10.248h-7.223v-10.63c0-2.819-1.041-4.228-3.118-4.228-1.116 0-2.002.38-2.661 1.143-.659.762-.989 1.917-.989 3.467v10.248h-7.223V27.839h6.881v2.172a7.07 7.07 0 012.7-1.867c1.064-.432 2.217-.648 3.459-.648 1.445 0 2.737.267 3.878.8 1.14.534 2.065 1.346 2.775 2.438a7.983 7.983 0 013.079-2.4c1.241-.559 2.597-.838 4.068-.838z" fill="#10499E"/></g></svg>