<svg width="19" height="20" fill="none" xmlns="http://www.w3.org/2000/svg"><path d="M18.296 11.578c.596-5.023-.287-8.194-1.88-9.628C13.846-.5 5.16-.863 2.084 2.06.702 3.487.215 5.585.162 8.182c-.054 2.597-.117 7.463 4.417 8.783h.004l-.004 2.016s-.03.816.491.98c.597.194.867-.185 2.722-2.402 3.104.27 5.487-.347 5.758-.437.627-.21 4.172-.68 4.746-5.545zM8.098 16.142s-1.964 2.449-2.575 3.085c-.2.206-.419.187-.416-.223 0-.269.015-3.346.015-3.346-3.844-1.102-3.617-5.245-3.575-7.413.041-2.168.438-3.944 1.608-5.14 2.7-2.53 10.313-1.965 12.253-.142 2.372 2.103 1.528 8.043 1.533 8.245-.488 4.062-3.361 4.32-3.89 4.495-.225.075-2.321.615-4.953.439z" fill="#8E24AA"/><path d="M9.185 3.58c-.32 0-.32.5 0 .505 2.49.02 4.54 1.754 4.562 4.937 0 .335.491.331.487-.005-.027-3.429-2.266-5.417-5.049-5.436z" fill="#8E24AA"/><path d="M12.46 8.494c-.008.332.482.348.487.012.04-1.891-1.125-3.448-3.316-3.613-.321-.023-.354.481-.034.505 1.9.144 2.9 1.44 2.862 3.096zm-.526 2.151c-.411-.238-.83-.09-1.004.144l-.362.47c-.185.238-.529.206-.529.206-2.512-.664-3.183-3.293-3.183-3.293s-.031-.355.199-.546l.453-.375c.227-.18.37-.614.14-1.04-.617-1.114-1.031-1.498-1.242-1.793-.222-.277-.555-.34-.902-.152h-.007c-.721.421-1.51 1.21-1.258 2.023.431.857 1.223 3.588 3.746 5.651 1.186.976 3.062 1.976 3.86 2.207l.007.011c.785.262 1.548-.558 1.955-1.3v-.006c.181-.36.121-.7-.143-.922-.468-.457-1.175-.96-1.73-1.285z" fill="#8E24AA"/><path d="M9.974 6.753c.8.047 1.19.465 1.23 1.325.016.335.503.312.488-.024-.053-1.121-.638-1.746-1.691-1.805-.321-.019-.351.485-.027.504z" fill="#8E24AA"/></svg>